<svg width="1024" height="1024" viewBox="0 0 1024 1024" fill="none" xmlns="http://www.w3.org/2000/svg">
<g clip-path="url(#clip0_381_46)">
<circle cx="512" cy="512" r="512" fill="white"/>
<mask id="mask0_381_46" style="mask-type:alpha" maskUnits="userSpaceOnUse" x="0" y="0" width="1024" height="1024">
<circle cx="512" cy="512" r="512" fill="#65A30D"/>
</mask>
<g mask="url(#mask0_381_46)">
<path fill-rule="evenodd" clip-rule="evenodd" d="M442.263 605.061C508.619 675.482 619.441 680.041 691.378 614.719C764.143 548.646 769.568 436.095 703.494 363.331C619.865 271.232 504.444 243.699 402.005 244.186C299.491 244.672 189.239 272.407 80.9392 314.878C-136.897 400.304 -383.78 559.991 -614.493 769.488C-845.207 978.984 -1027.9 1209.37 -1133.88 1417.98C-1186.56 1521.69 -1224.77 1628.76 -1235.12 1730.76C-1245.45 1832.67 -1229.15 1950.21 -1145.52 2042.31L-882.014 1803.03C-880.735 1804.44 -879.95 1805.57 -879.517 1806.3C-879.268 1806.95 -879.098 1807.24 -879.075 1807.22C-879.052 1807.2 -879.176 1806.87 -879.517 1806.3C-880.685 1803.24 -883.581 1792.08 -881.004 1766.67C-876.641 1723.65 -857.763 1660.32 -816.547 1579.19C-734.718 1418.11 -582.333 1221.06 -375.221 1032.99C-168.108 844.926 42.6881 712.199 210.885 646.239C295.602 613.017 360.454 600.317 403.696 600.112C427.443 599.999 438.467 603.409 442.263 605.061ZM443.002 605.403C443.627 605.713 443.895 605.91 443.874 605.931C443.852 605.952 443.539 605.797 443.002 605.403Z" fill="#65A30D"/>
</g>
<path d="M638.735 527.659L600.012 581.561C618.749 647.738 600.012 581.561 758.917 734.912C866.972 839.191 799.915 704.169 743.201 645.252C815.329 659.79 973.954 697.219 845.325 627.351C628.422 509.535 660.603 554.027 638.735 527.659Z" fill="#DD2E44"/>
<path d="M802.048 470.463C765.821 605.665 610.635 698.914 426.269 649.514C241.904 600.113 54.5712 527.865 90.7983 392.663C127.025 257.462 239.545 288.611 494.618 261.344C678.984 310.745 838.275 335.262 802.048 470.463Z" fill="#65A30D"/>
<circle cx="552" cy="410" r="40" fill="black"/>
<path fill-rule="evenodd" clip-rule="evenodd" d="M512 1024C794.77 1024 1024 794.77 1024 512C1024 229.23 794.77 0 512 0C229.23 0 0 229.23 0 512C0 794.77 229.23 1024 512 1024ZM512 975C767.708 975 975 767.708 975 512C975 256.292 767.708 49 512 49C256.292 49 49 256.292 49 512C49 767.708 256.292 975 512 975Z" fill="#65A30D"/>
</g>
<defs>
<clipPath id="clip0_381_46">
<rect width="1024" height="1024" fill="white"/>
</clipPath>
</defs>
</svg>
